<svg xmlns="http://www.w3.org/2000/svg" xmlns:xlink="http://www.w3.org/1999/xlink" width="1920" zoomAndPan="magnify" viewBox="0 0 1440 225" height="300" preserveAspectRatio="xMidYMid meet" version="1.0"><defs><g/></defs><path fill="#102c57" d="M 235.355469 132.792969 L 195.496094 124.011719 L 228.273438 99.429688 L 235.394531 132.742188 Z M 200.3125 179.242188 L 194.917969 125.09375 L 234.574219 133.832031 Z M 198.8125 181.222656 L 170.5625 144.621094 L 193.761719 125.375 L 199.261719 180.628906 Z M 124.824219 200.660156 L 169.382812 145.601562 L 169.652344 145.378906 L 197.742188 181.761719 Z M 122.460938 201.273438 L 146.195312 114.988281 L 168.933594 144.445312 L 168.585938 144.734375 C 168.554688 144.757812 168.527344 144.785156 168.507812 144.816406 L 122.90625 201.15625 Z M 121.1875 201.453125 L 119.871094 200.6875 L 96.667969 149.449219 L 144.933594 115.132812 Z M 67.578125 170.132812 L 95.691406 150.144531 L 118.113281 199.660156 Z M 44.554688 105.890625 L 94.960938 149.214844 L 66.691406 169.316406 Z M 91.171875 108.753906 C 91.117188 108.855469 91.085938 108.972656 91.097656 109.089844 L 95.152344 147.824219 L 44.171875 104 Z M 44.285156 102.421875 L 110.699219 79.449219 L 91.902344 107.640625 L 44.046875 102.804688 Z M 81.519531 42.507812 L 112.722656 77.5 L 45.273438 100.832031 Z M 134.410156 54.058594 L 113.757812 76.886719 L 82.707031 42.070312 Z M 153.726562 32.707031 L 135.3125 53.058594 L 83.710938 41.09375 Z M 114.546875 77.769531 L 135.136719 55.011719 L 145.007812 111.761719 Z M 144.320312 114.117188 L 96.382812 148.207031 L 92.292969 109.179688 L 92.492188 108.882812 Z M 93.234375 107.773438 L 112.40625 79.015625 C 112.445312 78.957031 112.46875 78.890625 112.484375 78.828125 L 113.574219 78.453125 L 144.484375 112.949219 Z M 156.441406 32.382812 L 145.867188 109.84375 L 136.140625 53.902344 L 155.511719 32.492188 Z M 157.582031 32.730469 L 159.105469 33.578125 L 178.285156 66.878906 L 146.851562 111.378906 Z M 217.472656 66.183594 L 179.386719 66.429688 L 161.113281 34.699219 Z M 220.785156 68.03125 L 190.714844 86.097656 L 180.0625 67.601562 L 219.5625 67.351562 Z M 148.039062 111.742188 L 178.933594 68.007812 L 189.707031 86.707031 Z M 192.820312 124.628906 L 169.839844 143.691406 L 147.398438 114.617188 Z M 147.511719 113.433594 L 190.03125 87.886719 L 193.585938 123.589844 Z M 228 98.160156 L 194.722656 123.117188 L 191.152344 87.214844 L 221.730469 68.839844 Z M 226.785156 66.15625 C 226.621094 65.382812 226.128906 64.71875 225.4375 64.328125 L 158.773438 27.089844 C 158.265625 26.804688 157.679688 26.691406 157.101562 26.761719 L 80.324219 35.953125 C 79.496094 36.054688 78.753906 36.523438 78.316406 37.234375 L 38.316406 101.601562 C 37.878906 102.308594 37.78125 103.171875 38.054688 103.960938 L 61.964844 172.464844 C 62.179688 173.082031 62.609375 173.601562 63.167969 173.933594 L 119.566406 206.882812 C 119.996094 207.128906 120.472656 207.257812 120.957031 207.257812 C 121.1875 207.257812 121.417969 207.226562 121.644531 207.167969 L 200.878906 186.632812 C 201.480469 186.476562 202.011719 186.125 202.382812 185.628906 L 240.542969 135.054688 C 241.023438 134.414062 241.207031 133.601562 241.039062 132.820312 L 226.785156 66.15625 " fill-opacity="1" fill-rule="nonzero"/><g fill="#102c57" fill-opacity="1"><g transform="translate(288.926122, 164.612801)"><g><path d="M 70.5625 -60.546875 C 70.5625 -59.648438 70.519531 -58.757812 70.4375 -57.875 C 70.351562 -57 70.160156 -55.921875 69.859375 -54.640625 C 69.554688 -53.359375 69.148438 -52.160156 68.640625 -51.046875 C 68.128906 -49.929688 67.378906 -48.734375 66.390625 -47.453125 C 65.410156 -46.171875 64.265625 -45.035156 62.953125 -44.046875 C 61.648438 -43.066406 60.003906 -42.144531 58.015625 -41.28125 C 56.023438 -40.425781 53.785156 -39.765625 51.296875 -39.296875 L 77.25 0 L 61.125 0 L 35.765625 -38.390625 L 21.828125 -38.390625 L 21.828125 0 L 8.34375 0 L 8.34375 -89.890625 L 40.265625 -89.890625 C 46.035156 -89.890625 50.898438 -89.425781 54.859375 -88.5 C 58.828125 -87.582031 61.953125 -86.160156 64.234375 -84.234375 C 66.523438 -82.316406 68.148438 -80.0625 69.109375 -77.46875 C 70.078125 -74.875 70.5625 -71.738281 70.5625 -68.0625 Z M 40.265625 -51.875 C 44.835938 -51.875 48.363281 -52.21875 50.84375 -52.90625 C 53.332031 -53.59375 54.992188 -54.523438 55.828125 -55.703125 C 56.660156 -56.878906 57.078125 -58.492188 57.078125 -60.546875 L 57.078125 -68.0625 C 57.078125 -69.132812 56.988281 -70.019531 56.8125 -70.71875 C 56.644531 -71.425781 56.238281 -72.175781 55.59375 -72.96875 C 54.957031 -73.757812 54.050781 -74.378906 52.875 -74.828125 C 51.695312 -75.285156 50.046875 -75.660156 47.921875 -75.953125 C 45.804688 -76.253906 43.253906 -76.40625 40.265625 -76.40625 L 21.828125 -76.40625 L 21.828125 -51.875 Z M 40.265625 -51.875 "/></g></g></g><g fill="#102c57" fill-opacity="1"><g transform="translate(367.836622, 164.612801)"><g><path d="M 19.578125 -65.75 L 46.296875 -65.75 L 46.296875 -13.484375 L 63.828125 -13.484375 L 63.828125 0 L 15.09375 0 L 15.09375 -13.484375 L 32.8125 -13.484375 L 32.8125 -52.265625 L 19.578125 -52.265625 Z M 32.8125 -76.125 C 30.882812 -78.070312 29.921875 -80.457031 29.921875 -83.28125 C 29.921875 -86.101562 30.882812 -88.488281 32.8125 -90.4375 C 34.738281 -92.382812 37.113281 -93.359375 39.9375 -93.359375 C 42.757812 -93.359375 45.15625 -92.382812 47.125 -90.4375 C 49.09375 -88.488281 50.078125 -86.101562 50.078125 -83.28125 C 50.078125 -80.457031 49.09375 -78.070312 47.125 -76.125 C 45.15625 -74.175781 42.757812 -73.203125 39.9375 -73.203125 C 37.113281 -73.203125 34.738281 -74.175781 32.8125 -76.125 Z M 32.8125 -76.125 "/></g></g></g><g fill="#102c57" fill-opacity="1"><g transform="translate(446.747122, 164.612801)"><g><path d="M 56.375 -48.03125 C 54.28125 -51.882812 48.910156 -53.8125 40.265625 -53.8125 L 38.78125 -53.8125 C 35.65625 -53.8125 32.96875 -53.40625 30.71875 -52.59375 C 28.476562 -51.78125 26.722656 -50.625 25.453125 -49.125 C 24.191406 -47.625 23.269531 -45.960938 22.6875 -44.140625 C 22.113281 -42.328125 21.828125 -40.285156 21.828125 -38.015625 L 21.828125 -27.796875 C 21.828125 -23.046875 23.441406 -19.203125 26.671875 -16.265625 C 29.910156 -13.335938 33.945312 -11.875 38.78125 -11.875 L 40.265625 -11.875 C 44.109375 -11.875 47.484375 -12.398438 50.390625 -13.453125 C 53.304688 -14.503906 55.300781 -16.117188 56.375 -18.296875 L 68.578125 -12.390625 C 66.390625 -7.898438 62.84375 -4.441406 57.9375 -2.015625 C 53.039062 0.398438 47.148438 1.609375 40.265625 1.609375 L 38.78125 1.609375 C 30.257812 1.609375 23.054688 -1.160156 17.171875 -6.703125 C 11.285156 -12.253906 8.34375 -19.285156 8.34375 -27.796875 L 8.34375 -38.015625 C 8.34375 -46.535156 10.984375 -53.546875 16.265625 -59.046875 C 21.554688 -64.546875 29.0625 -67.296875 38.78125 -67.296875 L 40.265625 -67.296875 C 48.140625 -67.296875 54.25 -66.128906 58.59375 -63.796875 C 62.9375 -61.460938 66.304688 -58.003906 68.703125 -53.421875 Z M 56.375 -48.03125 "/></g></g></g><g fill="#102c57" fill-opacity="1"><g transform="translate(525.657634, 164.612801)"><g><path d="M 8.34375 -22.46875 C 8.34375 -23.96875 8.597656 -25.53125 9.109375 -27.15625 C 9.628906 -28.78125 10.601562 -30.535156 12.03125 -32.421875 C 13.46875 -34.304688 15.265625 -35.972656 17.421875 -37.421875 C 19.585938 -38.878906 22.519531 -40.101562 26.21875 -41.09375 C 29.925781 -42.082031 34.113281 -42.578125 38.78125 -42.578125 L 57.078125 -42.578125 L 57.078125 -43.46875 C 57.078125 -44.789062 56.882812 -45.976562 56.5 -47.03125 C 56.113281 -48.082031 55.375 -49.175781 54.28125 -50.3125 C 53.195312 -51.445312 51.46875 -52.320312 49.09375 -52.9375 C 46.71875 -53.5625 43.773438 -53.875 40.265625 -53.875 L 38.78125 -53.875 C 30.4375 -53.875 25.191406 -52.140625 23.046875 -48.671875 L 11.5 -55.609375 C 16.207031 -63.441406 25.300781 -67.359375 38.78125 -67.359375 L 40.265625 -67.359375 C 45.015625 -67.359375 49.238281 -66.820312 52.9375 -65.75 C 56.644531 -64.675781 59.578125 -63.328125 61.734375 -61.703125 C 63.898438 -60.078125 65.664062 -58.160156 67.03125 -55.953125 C 68.40625 -53.753906 69.335938 -51.644531 69.828125 -49.625 C 70.316406 -47.613281 70.5625 -45.5625 70.5625 -43.46875 L 70.5625 0 L 57.078125 0 L 57.078125 -3.078125 C 51.429688 0.046875 45.828125 1.609375 40.265625 1.609375 L 38.78125 1.609375 C 33.945312 1.609375 29.515625 0.945312 25.484375 -0.375 C 21.460938 -1.707031 18.253906 -3.410156 15.859375 -5.484375 C 13.460938 -7.566406 11.609375 -9.785156 10.296875 -12.140625 C 8.992188 -14.492188 8.34375 -16.78125 8.34375 -19 Z M 38.78125 -29.09375 C 36.039062 -29.09375 33.578125 -28.851562 31.390625 -28.375 C 29.210938 -27.90625 27.566406 -27.367188 26.453125 -26.765625 C 25.335938 -26.171875 24.394531 -25.507812 23.625 -24.78125 C 22.851562 -24.050781 22.367188 -23.492188 22.171875 -23.109375 C 21.984375 -22.722656 21.867188 -22.445312 21.828125 -22.28125 L 21.828125 -19 C 21.828125 -17.9375 22.070312 -16.992188 22.5625 -16.171875 C 23.0625 -15.359375 23.910156 -14.617188 25.109375 -13.953125 C 26.304688 -13.296875 28.050781 -12.785156 30.34375 -12.421875 C 32.632812 -12.054688 35.445312 -11.875 38.78125 -11.875 L 40.265625 -11.875 C 42.359375 -11.875 44.347656 -12.140625 46.234375 -12.671875 C 48.117188 -13.210938 49.703125 -13.878906 50.984375 -14.671875 C 52.265625 -15.460938 53.375 -16.296875 54.3125 -17.171875 C 55.257812 -18.054688 55.957031 -18.828125 56.40625 -19.484375 C 56.851562 -20.148438 57.078125 -20.632812 57.078125 -20.9375 L 57.078125 -29.09375 Z M 38.78125 -29.09375 "/></g></g></g><g fill="#102c57" fill-opacity="1"><g transform="translate(604.568123, 164.612801)"><g><path d="M 46.421875 -53.875 L 44.953125 -53.875 C 42.117188 -53.875 39.257812 -53.113281 36.375 -51.59375 C 33.488281 -50.070312 31.003906 -48.164062 28.921875 -45.875 C 26.847656 -43.582031 25.144531 -41.035156 23.8125 -38.234375 C 22.488281 -35.429688 21.828125 -32.8125 21.828125 -30.375 L 21.828125 0 L 8.34375 0 L 8.34375 -65.75 L 21.828125 -65.75 L 21.828125 -57.71875 C 28.972656 -64.144531 36.679688 -67.359375 44.953125 -67.359375 L 46.421875 -67.359375 C 57.335938 -67.359375 65.171875 -64.253906 69.921875 -58.046875 L 59.265625 -49.828125 C 57.171875 -52.523438 52.890625 -53.875 46.421875 -53.875 Z M 46.421875 -53.875 "/></g></g></g><g fill="#102c57" fill-opacity="1"><g transform="translate(683.478611, 164.612801)"><g><path d="M 38.78125 -67.359375 L 40.265625 -67.359375 C 46.722656 -67.359375 52.328125 -66.03125 57.078125 -63.375 L 57.078125 -89.890625 L 70.5625 -89.890625 L 70.5625 0 L 57.078125 0 L 57.078125 -2.3125 C 52.453125 0.300781 46.847656 1.609375 40.265625 1.609375 L 38.78125 1.609375 C 33.21875 1.609375 28.125 0.378906 23.5 -2.078125 C 18.875 -4.546875 15.191406 -8.046875 12.453125 -12.578125 C 9.710938 -17.117188 8.34375 -22.191406 8.34375 -27.796875 L 8.34375 -38.015625 C 8.34375 -46.828125 11.0625 -53.921875 16.5 -59.296875 C 21.9375 -64.671875 29.363281 -67.359375 38.78125 -67.359375 Z M 21.828125 -38.015625 L 21.828125 -27.796875 C 21.828125 -23.046875 23.441406 -19.203125 26.671875 -16.265625 C 29.910156 -13.335938 33.945312 -11.875 38.78125 -11.875 L 40.265625 -11.875 C 51.472656 -11.875 57.078125 -17.179688 57.078125 -27.796875 L 57.078125 -38.015625 C 57.078125 -40.148438 56.820312 -42.101562 56.3125 -43.875 C 55.800781 -45.65625 54.941406 -47.328125 53.734375 -48.890625 C 52.535156 -50.453125 50.789062 -51.671875 48.5 -52.546875 C 46.21875 -53.429688 43.472656 -53.875 40.265625 -53.875 L 38.78125 -53.875 C 32.789062 -53.875 28.46875 -52.425781 25.8125 -49.53125 C 23.15625 -46.644531 21.828125 -42.804688 21.828125 -38.015625 Z M 21.828125 -38.015625 "/></g></g></g><g fill="#102c57" fill-opacity="1"><g transform="translate(762.3891, 164.612801)"><g><path d="M 41.09375 -53.8125 L 37.6875 -53.8125 C 27.113281 -53.8125 21.828125 -47.816406 21.828125 -35.828125 L 21.828125 -31.078125 C 21.828125 -18.273438 27.15625 -11.875 37.8125 -11.875 L 40.84375 -11.875 C 46.0625 -11.875 50.070312 -13.382812 52.875 -16.40625 C 55.675781 -19.425781 57.078125 -24.296875 57.078125 -31.015625 L 57.078125 -35.890625 C 57.078125 -47.835938 51.75 -53.8125 41.09375 -53.8125 Z M 70.5625 -35.890625 L 70.5625 -31.015625 C 70.5625 -26.347656 69.953125 -22.054688 68.734375 -18.140625 C 67.515625 -14.222656 65.71875 -10.773438 63.34375 -7.796875 C 60.96875 -4.828125 57.863281 -2.515625 54.03125 -0.859375 C 50.195312 0.785156 45.800781 1.609375 40.84375 1.609375 L 37.8125 1.609375 C 32.9375 1.609375 28.59375 0.765625 24.78125 -0.921875 C 20.96875 -2.617188 17.875 -4.960938 15.5 -7.953125 C 13.125 -10.953125 11.335938 -14.410156 10.140625 -18.328125 C 8.941406 -22.242188 8.34375 -26.492188 8.34375 -31.078125 L 8.34375 -35.828125 C 8.34375 -45.285156 10.867188 -52.894531 15.921875 -58.65625 C 20.972656 -64.414062 28.226562 -67.296875 37.6875 -67.296875 L 41.09375 -67.296875 C 50.550781 -67.296875 57.828125 -64.414062 62.921875 -58.65625 C 68.015625 -52.894531 70.5625 -45.304688 70.5625 -35.890625 Z M 70.5625 -35.890625 "/></g></g></g><g fill="#102c57" fill-opacity="1"><g transform="translate(841.299588, 164.612801)"><g/></g></g><g fill="#102c57" fill-opacity="1"><g transform="translate(920.210077, 164.612801)"><g><path d="M 21.828125 0 L 8.34375 0 L 8.34375 -89.890625 L 19.84375 -89.890625 L 57.078125 -29.15625 L 57.078125 -89.890625 L 70.5625 -89.890625 L 70.5625 0 C 70.5625 0 66.753906 0 59.140625 0 L 21.828125 -60.875 Z M 21.828125 0 "/></g></g></g><g fill="#102c57" fill-opacity="1"><g transform="translate(999.120565, 164.612801)"><g><path d="M 41.09375 -53.8125 L 37.6875 -53.8125 C 27.113281 -53.8125 21.828125 -47.816406 21.828125 -35.828125 L 21.828125 -31.078125 C 21.828125 -18.273438 27.15625 -11.875 37.8125 -11.875 L 40.84375 -11.875 C 46.0625 -11.875 50.070312 -13.382812 52.875 -16.40625 C 55.675781 -19.425781 57.078125 -24.296875 57.078125 -31.015625 L 57.078125 -35.890625 C 57.078125 -47.835938 51.75 -53.8125 41.09375 -53.8125 Z M 70.5625 -35.890625 L 70.5625 -31.015625 C 70.5625 -26.347656 69.953125 -22.054688 68.734375 -18.140625 C 67.515625 -14.222656 65.71875 -10.773438 63.34375 -7.796875 C 60.96875 -4.828125 57.863281 -2.515625 54.03125 -0.859375 C 50.195312 0.785156 45.800781 1.609375 40.84375 1.609375 L 37.8125 1.609375 C 32.9375 1.609375 28.59375 0.765625 24.78125 -0.921875 C 20.96875 -2.617188 17.875 -4.960938 15.5 -7.953125 C 13.125 -10.953125 11.335938 -14.410156 10.140625 -18.328125 C 8.941406 -22.242188 8.34375 -26.492188 8.34375 -31.078125 L 8.34375 -35.828125 C 8.34375 -45.285156 10.867188 -52.894531 15.921875 -58.65625 C 20.972656 -64.414062 28.226562 -67.296875 37.6875 -67.296875 L 41.09375 -67.296875 C 50.550781 -67.296875 57.828125 -64.414062 62.921875 -58.65625 C 68.015625 -52.894531 70.5625 -45.304688 70.5625 -35.890625 Z M 70.5625 -35.890625 "/></g></g></g><g fill="#102c57" fill-opacity="1"><g transform="translate(1078.031099, 164.612801)"><g><path d="M 35.1875 1.609375 L 5.015625 -65.75 L 19.78125 -65.75 L 39.546875 -21.640625 L 59.328125 -65.75 L 74.09375 -65.75 L 43.921875 1.609375 Z M 35.1875 1.609375 "/></g></g></g><g fill="#102c57" fill-opacity="1"><g transform="translate(1156.941588, 164.612801)"><g><path d="M 8.34375 -22.46875 C 8.34375 -23.96875 8.597656 -25.53125 9.109375 -27.15625 C 9.628906 -28.78125 10.601562 -30.535156 12.03125 -32.421875 C 13.46875 -34.304688 15.265625 -35.972656 17.421875 -37.421875 C 19.585938 -38.878906 22.519531 -40.101562 26.21875 -41.09375 C 29.925781 -42.082031 34.113281 -42.578125 38.78125 -42.578125 L 57.078125 -42.578125 L 57.078125 -43.46875 C 57.078125 -44.789062 56.882812 -45.976562 56.5 -47.03125 C 56.113281 -48.082031 55.375 -49.175781 54.28125 -50.3125 C 53.195312 -51.445312 51.46875 -52.320312 49.09375 -52.9375 C 46.71875 -53.5625 43.773438 -53.875 40.265625 -53.875 L 38.78125 -53.875 C 30.4375 -53.875 25.191406 -52.140625 23.046875 -48.671875 L 11.5 -55.609375 C 16.207031 -63.441406 25.300781 -67.359375 38.78125 -67.359375 L 40.265625 -67.359375 C 45.015625 -67.359375 49.238281 -66.820312 52.9375 -65.75 C 56.644531 -64.675781 59.578125 -63.328125 61.734375 -61.703125 C 63.898438 -60.078125 65.664062 -58.160156 67.03125 -55.953125 C 68.40625 -53.753906 69.335938 -51.644531 69.828125 -49.625 C 70.316406 -47.613281 70.5625 -45.5625 70.5625 -43.46875 L 70.5625 0 L 57.078125 0 L 57.078125 -3.078125 C 51.429688 0.046875 45.828125 1.609375 40.265625 1.609375 L 38.78125 1.609375 C 33.945312 1.609375 29.515625 0.945312 25.484375 -0.375 C 21.460938 -1.707031 18.253906 -3.410156 15.859375 -5.484375 C 13.460938 -7.566406 11.609375 -9.785156 10.296875 -12.140625 C 8.992188 -14.492188 8.34375 -16.78125 8.34375 -19 Z M 38.78125 -29.09375 C 36.039062 -29.09375 33.578125 -28.851562 31.390625 -28.375 C 29.210938 -27.90625 27.566406 -27.367188 26.453125 -26.765625 C 25.335938 -26.171875 24.394531 -25.507812 23.625 -24.78125 C 22.851562 -24.050781 22.367188 -23.492188 22.171875 -23.109375 C 21.984375 -22.722656 21.867188 -22.445312 21.828125 -22.28125 L 21.828125 -19 C 21.828125 -17.9375 22.070312 -16.992188 22.5625 -16.171875 C 23.0625 -15.359375 23.910156 -14.617188 25.109375 -13.953125 C 26.304688 -13.296875 28.050781 -12.785156 30.34375 -12.421875 C 32.632812 -12.054688 35.445312 -11.875 38.78125 -11.875 L 40.265625 -11.875 C 42.359375 -11.875 44.347656 -12.140625 46.234375 -12.671875 C 48.117188 -13.210938 49.703125 -13.878906 50.984375 -14.671875 C 52.265625 -15.460938 53.375 -16.296875 54.3125 -17.171875 C 55.257812 -18.054688 55.957031 -18.828125 56.40625 -19.484375 C 56.851562 -20.148438 57.078125 -20.632812 57.078125 -20.9375 L 57.078125 -29.09375 Z M 38.78125 -29.09375 "/></g></g></g><g fill="#102c57" fill-opacity="1"><g transform="translate(1235.852076, 164.612801)"><g><path d="M 19.578125 -65.75 L 46.296875 -65.75 L 46.296875 -13.484375 L 63.828125 -13.484375 L 63.828125 0 L 15.09375 0 L 15.09375 -13.484375 L 32.8125 -13.484375 L 32.8125 -52.265625 L 19.578125 -52.265625 Z M 32.8125 -76.125 C 30.882812 -78.070312 29.921875 -80.457031 29.921875 -83.28125 C 29.921875 -86.101562 30.882812 -88.488281 32.8125 -90.4375 C 34.738281 -92.382812 37.113281 -93.359375 39.9375 -93.359375 C 42.757812 -93.359375 45.15625 -92.382812 47.125 -90.4375 C 49.09375 -88.488281 50.078125 -86.101562 50.078125 -83.28125 C 50.078125 -80.457031 49.09375 -78.070312 47.125 -76.125 C 45.15625 -74.175781 42.757812 -73.203125 39.9375 -73.203125 C 37.113281 -73.203125 34.738281 -74.175781 32.8125 -76.125 Z M 32.8125 -76.125 "/></g></g></g><g fill="#102c57" fill-opacity="1"><g transform="translate(1314.762565, 164.612801)"><g><path d="M 40.265625 -11.875 C 45.222656 -11.875 49.265625 -12.410156 52.390625 -13.484375 C 55.515625 -14.554688 57.078125 -15.90625 57.078125 -17.53125 L 57.078125 -20.296875 C 57.078125 -20.847656 56.722656 -21.5625 56.015625 -22.4375 C 55.316406 -23.3125 54.429688 -23.898438 53.359375 -24.203125 L 24.84375 -31.65625 C 22.40625 -32.300781 20.242188 -33.296875 18.359375 -34.640625 C 16.472656 -35.984375 15.015625 -37.476562 13.984375 -39.125 C 12.960938 -40.78125 12.207031 -42.421875 11.71875 -44.046875 C 11.226562 -45.671875 10.984375 -47.234375 10.984375 -48.734375 L 10.984375 -49.4375 C 10.984375 -51.019531 11.195312 -52.5625 11.625 -54.0625 C 12.050781 -55.5625 12.882812 -57.144531 14.125 -58.8125 C 15.363281 -60.476562 16.96875 -61.921875 18.9375 -63.140625 C 20.90625 -64.367188 23.59375 -65.378906 27 -66.171875 C 30.40625 -66.960938 34.332031 -67.359375 38.78125 -67.359375 L 40.265625 -67.359375 C 45.742188 -67.359375 51.070312 -66.222656 56.25 -63.953125 C 61.425781 -61.679688 65.320312 -58.472656 67.9375 -54.328125 L 56.5 -47.125 C 55.4375 -48.800781 53.414062 -50.34375 50.4375 -51.75 C 47.457031 -53.164062 44.066406 -53.875 40.265625 -53.875 L 38.78125 -53.875 C 36.6875 -53.875 34.757812 -53.742188 33 -53.484375 C 31.25 -53.222656 29.867188 -52.910156 28.859375 -52.546875 C 27.859375 -52.191406 27.003906 -51.796875 26.296875 -51.359375 C 25.585938 -50.929688 25.101562 -50.554688 24.84375 -50.234375 C 24.59375 -49.921875 24.46875 -49.65625 24.46875 -49.4375 L 24.46875 -48.734375 C 24.46875 -48.222656 24.753906 -47.515625 25.328125 -46.609375 C 25.910156 -45.710938 26.820312 -45.09375 28.0625 -44.75 L 56.703125 -37.3125 C 60.597656 -36.320312 63.878906 -34.1875 66.546875 -30.90625 C 69.222656 -27.632812 70.5625 -24.097656 70.5625 -20.296875 L 70.5625 -17.53125 C 70.5625 -14.1875 69.75 -11.25 68.125 -8.71875 C 66.5 -6.195312 64.25 -4.195312 61.375 -2.71875 C 58.507812 -1.25 55.3125 -0.160156 51.78125 0.546875 C 48.25 1.253906 44.410156 1.609375 40.265625 1.609375 L 36.15625 1.609375 C 33.75 1.609375 31.269531 1.304688 28.71875 0.703125 C 26.175781 0.109375 23.695312 -0.828125 21.28125 -2.109375 C 18.863281 -3.398438 16.691406 -4.921875 14.765625 -6.671875 C 12.835938 -8.429688 11.285156 -10.582031 10.109375 -13.125 C 8.929688 -15.675781 8.34375 -18.382812 8.34375 -21.25 L 21.828125 -21.25 C 21.828125 -20.65625 22.007812 -19.914062 22.375 -19.03125 C 22.738281 -18.15625 23.367188 -17.140625 24.265625 -15.984375 C 25.171875 -14.828125 26.660156 -13.851562 28.734375 -13.0625 C 30.804688 -12.269531 33.28125 -11.875 36.15625 -11.875 Z M 40.265625 -11.875 "/></g></g></g></svg>